<svg width="5" height="8" viewBox="0 0 5 8" fill="none" xmlns="http://www.w3.org/2000/svg">
<path d="M4.63501 -0.0730057C4.60139 -0.0730639 4.56812 -0.0663158 4.53718 -0.0531683C4.50624 -0.0400208 4.47829 -0.0207462 4.45501 0.0034943L0.775506 3.81899C0.73051 3.86544 0.705351 3.92758 0.705351 3.99225C0.705351 4.05691 0.73051 4.11905 0.775506 4.16549L4.47101 7.99649C4.4934 8.02155 4.52062 8.04182 4.55103 8.05612C4.58145 8.07041 4.61443 8.07843 4.64801 8.07969C4.68159 8.08095 4.71508 8.07542 4.74648 8.06345C4.77787 8.05147 4.80653 8.03329 4.83075 8.00999C4.85496 7.98668 4.87422 7.95874 4.88739 7.92782C4.90056 7.8969 4.90735 7.86365 4.90738 7.83005C4.9074 7.79644 4.90065 7.76318 4.88753 7.73224C4.87441 7.70131 4.85518 7.67333 4.83101 7.64999L1.30301 3.99249L4.81501 0.350494C4.84905 0.315176 4.87195 0.270622 4.88086 0.222383C4.88976 0.174143 4.88428 0.12435 4.86509 0.0792036C4.8459 0.0340574 4.81386 -0.00444624 4.77294 -0.0315113C4.73203 -0.0585763 4.68406 -0.0730069 4.63501 -0.0730057Z" fill="white"/>
</svg>
