<svg width="21" height="8" viewBox="0 0 21 8" fill="none" xmlns="http://www.w3.org/2000/svg">
<g clip-path="url(#clip0_71_5)">
<path d="M4.63501 -0.0730057C4.60139 -0.0730639 4.56812 -0.0663158 4.53718 -0.0531683C4.50624 -0.0400208 4.47829 -0.0207462 4.45501 0.0034943L0.775506 3.81899C0.73051 3.86544 0.705351 3.92758 0.705351 3.99225C0.705351 4.05691 0.73051 4.11905 0.775506 4.16549L4.47101 7.99649C4.4934 8.02155 4.52062 8.04182 4.55103 8.05612C4.58145 8.07041 4.61443 8.07843 4.64801 8.07969C4.68159 8.08095 4.71508 8.07542 4.74648 8.06345C4.77787 8.05147 4.80653 8.03329 4.83075 8.00999C4.85496 7.98668 4.87422 7.95874 4.88739 7.92782C4.90056 7.8969 4.90735 7.86365 4.90738 7.83005C4.9074 7.79644 4.90065 7.76318 4.88753 7.73224C4.87441 7.70131 4.85518 7.67333 4.83101 7.64999L1.30301 3.99249L4.81501 0.350494C4.84905 0.315176 4.87195 0.270622 4.88086 0.222383C4.88976 0.174143 4.88428 0.12435 4.86509 0.0792036C4.8459 0.0340574 4.81386 -0.00444624 4.77294 -0.0315113C4.73203 -0.0585763 4.68406 -0.0730069 4.63501 -0.0730057Z" fill="white"/>
<path d="M20.5829 3.74185L1.05432 3.74249C0.988013 3.74249 0.924425 3.76883 0.877541 3.81572C0.830656 3.8626 0.804317 3.92619 0.804317 3.99249C0.804317 4.0588 0.830656 4.12239 0.877541 4.16927C0.924425 4.21615 0.988013 4.24249 1.05432 4.24249L20.5829 4.24185C20.6492 4.24185 20.7127 4.21551 20.7596 4.16863C20.8065 4.12174 20.8329 4.05816 20.8329 3.99185C20.8329 3.92555 20.8065 3.86196 20.7596 3.81507C20.7127 3.76819 20.6492 3.74185 20.5829 3.74185Z" fill="white"/>
</g>
<defs>
<clipPath id="clip0_71_5">
<rect width="21" height="8" fill="white" transform="translate(21 8) rotate(180)"/>
</clipPath>
</defs>
</svg>
