<svg width="21" height="8" viewBox="0 0 21 8" fill="none" xmlns="http://www.w3.org/2000/svg">
<g clip-path="url(#clip0_71_2)">
<path d="M16.365 8.07301C16.3986 8.07306 16.4319 8.06632 16.4628 8.05317C16.4938 8.04002 16.5217 8.02075 16.545 7.99651L20.2245 4.18101C20.2695 4.13456 20.2946 4.07242 20.2946 4.00776C20.2946 3.94309 20.2695 3.88095 20.2245 3.83451L16.529 0.00350589C16.5066 -0.0215455 16.4794 -0.0418244 16.449 -0.0561188C16.4186 -0.0704131 16.3856 -0.0784294 16.352 -0.0796888C16.3184 -0.0809483 16.2849 -0.0754249 16.2535 -0.0634487C16.2221 -0.0514726 16.1935 -0.0332895 16.1693 -0.00998622C16.145 0.0133171 16.1258 0.041262 16.1126 0.072179C16.0994 0.103096 16.0926 0.13635 16.0926 0.169954C16.0926 0.203558 16.0993 0.236823 16.1125 0.267759C16.1256 0.298695 16.1448 0.326667 16.169 0.350006L19.697 4.00751L16.185 7.64951C16.1509 7.68482 16.128 7.72938 16.1191 7.77762C16.1102 7.82586 16.1157 7.87565 16.1349 7.9208C16.1541 7.96594 16.1861 8.00445 16.2271 8.03151C16.268 8.05858 16.3159 8.07301 16.365 8.07301Z" fill="white"/>
<path d="M0.417145 4.25815L19.9457 4.25751C20.012 4.25751 20.0756 4.23117 20.1225 4.18428C20.1693 4.1374 20.1957 4.07381 20.1957 4.00751C20.1957 3.9412 20.1693 3.87762 20.1225 3.83073C20.0756 3.78385 20.012 3.75751 19.9457 3.75751L0.417145 3.75815C0.350841 3.75815 0.287252 3.78449 0.240368 3.83137C0.193484 3.87826 0.167145 3.94184 0.167145 4.00815C0.167145 4.07445 0.193484 4.13804 0.240368 4.18493C0.287252 4.23181 0.350841 4.25815 0.417145 4.25815Z" fill="white"/>
</g>
<defs>
<clipPath id="clip0_71_2">
<rect width="21" height="8" fill="white"/>
</clipPath>
</defs>
</svg>
