<svg width="5" height="8" viewBox="0 0 5 8" fill="none" xmlns="http://www.w3.org/2000/svg">
<path d="M0.364993 8.07301C0.398606 8.07306 0.431884 8.06632 0.462819 8.05317C0.493754 8.04002 0.521707 8.02075 0.544993 7.99651L4.22449 4.18101C4.26949 4.13456 4.29465 4.07242 4.29465 4.00776C4.29465 3.94309 4.26949 3.88095 4.22449 3.83451L0.528994 0.00350589C0.506596 -0.0215455 0.479377 -0.0418244 0.448965 -0.0561188C0.418553 -0.0704131 0.385571 -0.0784294 0.351991 -0.0796888C0.31841 -0.0809483 0.284921 -0.0754249 0.253524 -0.0634487C0.222126 -0.0514726 0.193466 -0.0332895 0.169254 -0.00998622C0.145043 0.0133171 0.125778 0.041262 0.112611 0.072179C0.099444 0.103096 0.0926452 0.13635 0.0926209 0.169954C0.0925966 0.203558 0.0993476 0.236823 0.11247 0.267759C0.125592 0.298695 0.144816 0.326667 0.168993 0.350006L3.69699 4.00751L0.184994 7.64951C0.15095 7.68482 0.128048 7.72938 0.119142 7.77762C0.110236 7.82586 0.115718 7.87565 0.134907 7.9208C0.154095 7.96594 0.186142 8.00445 0.227055 8.03151C0.267967 8.05858 0.315938 8.07301 0.364993 8.07301Z" fill="white"/>
</svg>
